REM DIRINDEX 1\2\6,1\2\7,1\2\8,1\2\9,1\3\10,1\3\11,1\4\12,1\4\13,1\4\14,1\5\15,1\5\16,1\5\17
REM DIRNAME folder01,folder02,folder03,folder04,folder05,folder06,folder07,folder08,folder09,folder10,folder11,folder12,folder13,folder14,folder15,folder16,folder17
TITLE ""
FILE "1400_2_sec11_1084_1100.mp3" MP3
  TRACK 01 AUDIO
    TITLE "0:"
    INDEX 01 00:00:00
  TRACK 02 AUDIO
    TITLE "13:cjc029_3778"
    INDEX 01 00:00:19
  TRACK 03 AUDIO
    TITLE "0:"
    INDEX 01 00:01:30
  TRACK 04 AUDIO
    TITLE "14:cjc029_3779"
    INDEX 01 00:01:34
  TRACK 05 AUDIO
    TITLE "0:"
    INDEX 01 00:02:61
  TRACK 06 AUDIO
    TITLE "13:cjc029_3780"
    INDEX 01 00:03:41
  TRACK 07 AUDIO
    TITLE "0:"
    INDEX 01 00:04:44
  TRACK 08 AUDIO
    TITLE "14:cjc029_3781"
    INDEX 01 00:04:48
  TRACK 09 AUDIO
    TITLE "0:"
    INDEX 01 00:06:73
  TRACK 10 AUDIO
    TITLE "13:cjc029_3782"
    INDEX 01 00:07:52
  TRACK 11 AUDIO
    TITLE "0:"
    INDEX 01 00:09:10
  TRACK 12 AUDIO
    TITLE "14:cjc029_3783"
    INDEX 01 00:09:16
  TRACK 13 AUDIO
    TITLE "0:"
    INDEX 01 00:10:61
  TRACK 14 AUDIO
    TITLE "13:cjc029_3784"
    INDEX 01 00:11:42
  TRACK 15 AUDIO
    TITLE "0:"
    INDEX 01 00:12:69
  TRACK 16 AUDIO
    TITLE "14:cjc029_3785"
    INDEX 01 00:12:73
  TRACK 17 AUDIO
    TITLE "0:"
    INDEX 01 00:14:33
  TRACK 18 AUDIO
    TITLE "13:cjc029_3786"
    INDEX 01 00:15:13
  TRACK 19 AUDIO
    TITLE "0:"
    INDEX 01 00:16:28
  TRACK 20 AUDIO
    TITLE "14:cjc029_3787"
    INDEX 01 00:16:32
  TRACK 21 AUDIO
    TITLE "0:"
    INDEX 01 00:20:41
  TRACK 22 AUDIO
    TITLE "13:cjc029_3788"
    INDEX 01 00:21:23
  TRACK 23 AUDIO
    TITLE "0:"
    INDEX 01 00:22:40
  TRACK 24 AUDIO
    TITLE "14:cjc029_3789"
    INDEX 01 00:22:42
  TRACK 25 AUDIO
    TITLE "0:"
    INDEX 01 00:25:27
  TRACK 26 AUDIO
    TITLE "13:cjc029_3790"
    INDEX 01 00:26:09
  TRACK 27 AUDIO
    TITLE "0:"
    INDEX 01 00:27:36
  TRACK 28 AUDIO
    TITLE "14:cjc029_3791"
    INDEX 01 00:27:39
  TRACK 29 AUDIO
    TITLE "0:"
    INDEX 01 00:29:07
  TRACK 30 AUDIO
    TITLE "13:cjc029_3792"
    INDEX 01 00:29:64
  TRACK 31 AUDIO
    TITLE "0:"
    INDEX 01 00:30:67
  TRACK 32 AUDIO
    TITLE "14:cjc029_3793"
    INDEX 01 00:30:73
  TRACK 33 AUDIO
    TITLE "0:"
    INDEX 01 00:32:21
  TRACK 34 AUDIO
    TITLE "13:cjc029_3794"
    INDEX 01 00:33:01
  TRACK 35 AUDIO
    TITLE "0:"
    INDEX 01 00:34:10
  TRACK 36 AUDIO
    TITLE "14:cjc029_3795"
    INDEX 01 00:34:12
  TRACK 37 AUDIO
    TITLE "0:"
    INDEX 01 00:36:40
  TRACK 38 AUDIO
    TITLE "13:cjc029_3796"
    INDEX 01 00:37:20
  TRACK 39 AUDIO
    TITLE "0:"
    INDEX 01 00:38:24
  TRACK 40 AUDIO
    TITLE "14:cjc029_3797"
    INDEX 01 00:38:28
  TRACK 41 AUDIO
    TITLE "0:"
    INDEX 01 00:41:47
  TRACK 42 AUDIO
    TITLE "13:cjc029_3798"
    INDEX 01 00:42:31
  TRACK 43 AUDIO
    TITLE "0:"
    INDEX 01 00:43:48
  TRACK 44 AUDIO
    TITLE "14:cjc029_3799"
    INDEX 01 00:43:54
  TRACK 45 AUDIO
    TITLE "0:"
    INDEX 01 00:46:56
  TRACK 46 AUDIO
    TITLE "13:cjc029_3800"
    INDEX 01 00:47:38
  TRACK 47 AUDIO
    TITLE "0:"
    INDEX 01 00:48:51
  TRACK 48 AUDIO
    TITLE "14:cjc029_3801"
    INDEX 01 00:48:53
  TRACK 49 AUDIO
    TITLE "0:"
    INDEX 01 00:52:24
  TRACK 50 AUDIO
    TITLE "13:cjc029_3802"
    INDEX 01 00:53:06
  TRACK 51 AUDIO
    TITLE "0:"
    INDEX 01 00:54:21
  TRACK 52 AUDIO
    TITLE "14:cjc029_3803"
    INDEX 01 00:54:27
  TRACK 53 AUDIO
    TITLE "0:"
    INDEX 01 00:55:57
  TRACK 54 AUDIO
    TITLE "13:cjc029_3804"
    INDEX 01 00:56:41
  TRACK 55 AUDIO
    TITLE "0:"
    INDEX 01 00:57:54
  TRACK 56 AUDIO
    TITLE "14:cjc029_3805"
    INDEX 01 00:57:62
  TRACK 57 AUDIO
    TITLE "0:"
    INDEX 01 00:58:66
  TRACK 58 AUDIO
    TITLE "13:cjc029_3806"
    INDEX 01 00:59:47
  TRACK 59 AUDIO
    TITLE "0:"
    INDEX 01 01:00:51
  TRACK 60 AUDIO
    TITLE "14:cjc029_3807"
    INDEX 01 01:00:57
  TRACK 61 AUDIO
    TITLE "0:"
    INDEX 01 01:02:06
  TRACK 62 AUDIO
    TITLE "13:cjc029_3808"
    INDEX 01 01:02:61
  TRACK 63 AUDIO
    TITLE "0:"
    INDEX 01 01:04:00
  TRACK 64 AUDIO
    TITLE "14:cjc029_3809"
    INDEX 01 01:04:01
  TRACK 65 AUDIO
    TITLE "0:"
    INDEX 01 01:09:63
  TRACK 66 AUDIO
    TITLE "13:cjc029_3810"
    INDEX 01 01:10:45
  TRACK 67 AUDIO
    TITLE "0:"
    INDEX 01 01:11:56
  TRACK 68 AUDIO
    TITLE "14:cjc029_3811"
    INDEX 01 01:11:60
  TRACK 69 AUDIO
    TITLE "0:"
    INDEX 01 01:13:57
